<svg width="99" height="19" viewBox="0 0 99 19" fill="none" xmlns="http://www.w3.org/2000/svg">
<path d="M15.4148 6.22159H12.7557C12.6534 5.65341 12.4631 5.15341 12.1847 4.72159C11.9063 4.28977 11.5653 3.9233 11.1619 3.62216C10.7585 3.32102 10.3068 3.09375 9.80682 2.94034C9.3125 2.78693 8.78693 2.71023 8.23011 2.71023C7.22443 2.71023 6.32386 2.96307 5.52841 3.46875C4.73864 3.97443 4.11364 4.71591 3.65341 5.69318C3.19886 6.67045 2.97159 7.86364 2.97159 9.27273C2.97159 10.6932 3.19886 11.892 3.65341 12.8693C4.11364 13.8466 4.74148 14.5852 5.53693 15.0852C6.33239 15.5852 7.22727 15.8352 8.22159 15.8352C8.77273 15.8352 9.29545 15.7614 9.78977 15.6136C10.2898 15.4602 10.7415 15.2358 11.1449 14.9403C11.5483 14.6449 11.8892 14.2841 12.1676 13.858C12.4517 13.4261 12.6477 12.9318 12.7557 12.375L15.4148 12.3835C15.2727 13.2415 14.9972 14.0312 14.5881 14.7528C14.1847 15.4688 13.6648 16.0881 13.0284 16.6108C12.3977 17.1278 11.6761 17.5284 10.8636 17.8125C10.0511 18.0966 9.16477 18.2386 8.20455 18.2386C6.69318 18.2386 5.34659 17.8807 4.16477 17.1648C2.98295 16.4432 2.05114 15.4119 1.36932 14.071C0.693182 12.7301 0.355114 11.1307 0.355114 9.27273C0.355114 7.40909 0.696023 5.80966 1.37784 4.47443C2.05966 3.13352 2.99148 2.10511 4.1733 1.3892C5.35511 0.667613 6.69886 0.306818 8.20455 0.306818C9.13068 0.306818 9.99432 0.440341 10.7955 0.707386C11.6023 0.96875 12.3267 1.35511 12.9688 1.86648C13.6108 2.37216 14.142 2.99148 14.5625 3.72443C14.983 4.4517 15.267 5.28409 15.4148 6.22159ZM23.8757 18.2642C22.6484 18.2642 21.5774 17.983 20.6626 17.4205C19.7479 16.858 19.0376 16.071 18.532 15.0597C18.0263 14.0483 17.7734 12.8665 17.7734 11.5142C17.7734 10.1562 18.0263 8.96875 18.532 7.9517C19.0376 6.93466 19.7479 6.14489 20.6626 5.58239C21.5774 5.01989 22.6484 4.73864 23.8757 4.73864C25.103 4.73864 26.174 5.01989 27.0888 5.58239C28.0036 6.14489 28.7138 6.93466 29.2195 7.9517C29.7251 8.96875 29.978 10.1562 29.978 11.5142C29.978 12.8665 29.7251 14.0483 29.2195 15.0597C28.7138 16.071 28.0036 16.858 27.0888 17.4205C26.174 17.983 25.103 18.2642 23.8757 18.2642ZM23.8842 16.125C24.6797 16.125 25.3388 15.9148 25.8615 15.4943C26.3842 15.0739 26.7706 14.5142 27.0206 13.8153C27.2763 13.1165 27.4041 12.3466 27.4041 11.5057C27.4041 10.6705 27.2763 9.90341 27.0206 9.20455C26.7706 8.5 26.3842 7.93466 25.8615 7.50852C25.3388 7.08239 24.6797 6.86932 23.8842 6.86932C23.0831 6.86932 22.4183 7.08239 21.8899 7.50852C21.3672 7.93466 20.978 8.5 20.7223 9.20455C20.4723 9.90341 20.3473 10.6705 20.3473 11.5057C20.3473 12.3466 20.4723 13.1165 20.7223 13.8153C20.978 14.5142 21.3672 15.0739 21.8899 15.4943C22.4183 15.9148 23.0831 16.125 23.8842 16.125ZM35.3707 10.2273V18H32.8224V4.90909H35.2685V7.03977H35.4304C35.7315 6.34659 36.2031 5.78977 36.8452 5.36932C37.4929 4.94886 38.3082 4.73864 39.2912 4.73864C40.1832 4.73864 40.9645 4.92614 41.6349 5.30114C42.3054 5.67045 42.8253 6.22159 43.1946 6.95455C43.5639 7.6875 43.7486 8.59375 43.7486 9.6733V18H41.2003V9.98011C41.2003 9.03125 40.9531 8.28977 40.4588 7.75568C39.9645 7.21591 39.2855 6.94602 38.4219 6.94602C37.831 6.94602 37.3054 7.07386 36.8452 7.32955C36.3906 7.58523 36.0298 7.96023 35.7628 8.45455C35.5014 8.94318 35.3707 9.53409 35.3707 10.2273ZM53.277 4.90909V6.95455H46.1264V4.90909H53.277ZM48.044 1.77273H50.5923V14.1562C50.5923 14.6506 50.6662 15.0227 50.8139 15.2727C50.9616 15.517 51.152 15.6847 51.3849 15.7756C51.6236 15.8608 51.8821 15.9034 52.1605 15.9034C52.3651 15.9034 52.544 15.8892 52.6974 15.8608C52.8509 15.8324 52.9702 15.8097 53.0554 15.7926L53.5156 17.8977C53.3679 17.9545 53.1577 18.0114 52.8849 18.0682C52.6122 18.1307 52.2713 18.1648 51.8622 18.1705C51.1918 18.1818 50.5668 18.0625 49.9872 17.8125C49.4077 17.5625 48.9389 17.1761 48.581 16.6534C48.223 16.1307 48.044 15.4744 48.044 14.6847V1.77273ZM56.0959 18V4.90909H58.5589V6.98864H58.6953C58.9339 6.28409 59.3544 5.73011 59.9567 5.3267C60.5646 4.91761 61.2521 4.71307 62.0192 4.71307C62.1783 4.71307 62.3658 4.71875 62.5817 4.73011C62.8033 4.74148 62.9766 4.75568 63.1016 4.77273V7.21023C62.9993 7.18182 62.8175 7.15057 62.5561 7.11648C62.2947 7.0767 62.0334 7.05682 61.772 7.05682C61.1697 7.05682 60.6328 7.18466 60.1612 7.44034C59.6953 7.69034 59.326 8.03977 59.0533 8.48864C58.7805 8.93182 58.6442 9.4375 58.6442 10.0057V18H56.0959ZM68.9993 18.2898C68.1697 18.2898 67.4197 18.1364 66.7493 17.8295C66.0788 17.517 65.5476 17.0653 65.1555 16.4744C64.7692 15.8835 64.576 15.1591 64.576 14.3011C64.576 13.5625 64.718 12.9545 65.0021 12.4773C65.2862 12 65.6697 11.6222 66.1527 11.3438C66.6357 11.0653 67.1754 10.8551 67.772 10.7131C68.3686 10.571 68.9766 10.4631 69.5959 10.3892C70.38 10.2983 71.0163 10.2244 71.505 10.1676C71.9936 10.1051 72.3487 10.0057 72.5703 9.86932C72.7919 9.73295 72.9027 9.51136 72.9027 9.20455V9.14489C72.9027 8.40057 72.6925 7.82386 72.272 7.41477C71.8572 7.00568 71.2379 6.80114 70.4141 6.80114C69.5561 6.80114 68.88 6.99148 68.3857 7.37216C67.897 7.74716 67.5589 8.16477 67.3714 8.625L64.9766 8.07955C65.2607 7.28409 65.6754 6.64205 66.2209 6.15341C66.772 5.65909 67.4055 5.30114 68.1214 5.07954C68.8374 4.85227 69.5902 4.73864 70.38 4.73864C70.9027 4.73864 71.4567 4.80114 72.0419 4.92614C72.6328 5.04545 73.1839 5.26705 73.6953 5.59091C74.2124 5.91477 74.6357 6.37784 74.9652 6.98011C75.2947 7.5767 75.4595 8.35227 75.4595 9.30682V18H72.9709V16.2102H72.8686C72.7038 16.5398 72.4567 16.8636 72.1271 17.1818C71.7976 17.5 71.3743 17.7642 70.8572 17.9744C70.3402 18.1847 69.7209 18.2898 68.9993 18.2898ZM69.5533 16.2443C70.2578 16.2443 70.8601 16.1051 71.3601 15.8267C71.8658 15.5483 72.2493 15.1847 72.5107 14.7358C72.7777 14.2812 72.9112 13.7955 72.9112 13.2784V11.5909C72.8203 11.6818 72.6442 11.767 72.3828 11.8466C72.1271 11.9205 71.8345 11.9858 71.505 12.0426C71.1754 12.0937 70.8544 12.142 70.5419 12.1875C70.2294 12.2273 69.968 12.2614 69.7578 12.2898C69.2635 12.3523 68.8118 12.4574 68.4027 12.6051C67.9993 12.7528 67.6754 12.9659 67.4311 13.2443C67.1925 13.517 67.0732 13.8807 67.0732 14.3352C67.0732 14.9659 67.3061 15.4432 67.772 15.767C68.2379 16.0852 68.8317 16.2443 69.5533 16.2443ZM88.6634 8.10511L86.3537 8.5142C86.2571 8.21875 86.1037 7.9375 85.8935 7.67045C85.6889 7.40341 85.4105 7.18466 85.0582 7.0142C84.706 6.84375 84.2656 6.75852 83.7372 6.75852C83.0156 6.75852 82.4134 6.92045 81.9304 7.24432C81.4474 7.5625 81.206 7.97443 81.206 8.48011C81.206 8.91761 81.3679 9.26989 81.6918 9.53693C82.0156 9.80398 82.5384 10.0227 83.2599 10.1932L85.3395 10.6705C86.544 10.9489 87.4418 11.3778 88.0327 11.9574C88.6236 12.5369 88.919 13.2898 88.919 14.2159C88.919 15 88.6918 15.6989 88.2372 16.3125C87.7884 16.9205 87.1605 17.3977 86.3537 17.7443C85.5526 18.0909 84.6236 18.2642 83.5668 18.2642C82.1009 18.2642 80.9048 17.9517 79.9787 17.3267C79.0526 16.696 78.4844 15.8011 78.2741 14.642L80.7372 14.267C80.8906 14.9091 81.206 15.3949 81.6832 15.7244C82.1605 16.0483 82.7827 16.2102 83.5497 16.2102C84.3849 16.2102 85.0526 16.0369 85.5526 15.6903C86.0526 15.3381 86.3026 14.9091 86.3026 14.4034C86.3026 13.9943 86.1491 13.6506 85.8423 13.3722C85.5412 13.0937 85.0781 12.8835 84.4531 12.7415L82.2372 12.2557C81.0156 11.9773 80.1122 11.5341 79.527 10.9261C78.9474 10.3182 78.6577 9.5483 78.6577 8.61648C78.6577 7.84375 78.8736 7.16761 79.3054 6.58807C79.7372 6.00852 80.3338 5.55682 81.0952 5.23295C81.8565 4.90341 82.7287 4.73864 83.7116 4.73864C85.1264 4.73864 86.2401 5.04545 87.0526 5.65909C87.8651 6.26705 88.402 7.08239 88.6634 8.10511ZM97.8317 4.90909V6.95455H90.6811V4.90909H97.8317ZM92.5987 1.77273H95.147V14.1562C95.147 14.6506 95.2209 15.0227 95.3686 15.2727C95.5163 15.517 95.7067 15.6847 95.9396 15.7756C96.1783 15.8608 96.4368 15.9034 96.7152 15.9034C96.9197 15.9034 97.0987 15.8892 97.2521 15.8608C97.4055 15.8324 97.5249 15.8097 97.6101 15.7926L98.0703 17.8977C97.9226 17.9545 97.7124 18.0114 97.4396 18.0682C97.1669 18.1307 96.826 18.1648 96.4169 18.1705C95.7464 18.1818 95.1214 18.0625 94.5419 17.8125C93.9624 17.5625 93.4936 17.1761 93.1357 16.6534C92.7777 16.1307 92.5987 15.4744 92.5987 14.6847V1.77273Z" fill="black"/>
</svg>
