<svg width="234" height="56" viewBox="0 0 234 56" fill="none" xmlns="http://www.w3.org/2000/svg">
<path d="M226.778 0.736328H7.22266C3.6328 0.736328 0.722656 3.70539 0.722656 7.36791V48.6311C0.722656 52.2936 3.6328 55.2626 7.22266 55.2626H226.778C230.368 55.2626 233.278 52.2936 233.278 48.6311V7.36791C233.278 3.70539 230.368 0.736328 226.778 0.736328Z" fill="#1B1B1B" stroke="black"/>
<path d="M22.7917 32.4213L20.4609 23.8471H21.7946L23.4319 30.4871H23.5099L25.2127 23.8471H26.5341L28.2371 30.4912H28.3151L29.9483 23.8471H31.286L28.9511 32.4213H27.6749L25.9063 25.999H25.8406L24.072 32.4213H22.7917ZM33.5707 28.6031V32.4213H32.3437V23.8471H33.5542V27.0374H33.6322C33.78 26.6912 34.0056 26.4163 34.3093 26.2125C34.613 26.0089 35.0097 25.9069 35.4993 25.9069C35.9315 25.9069 36.3091 25.9977 36.6319 26.1791C36.9575 26.3605 37.2091 26.6312 37.3869 26.9912C37.5675 27.3486 37.6578 27.7951 37.6578 28.331V32.4213H36.4309V28.4817C36.4309 28.01 36.3118 27.6444 36.0738 27.3849C35.8357 27.1225 35.5048 26.9912 35.0807 26.9912C34.7908 26.9912 34.5308 27.0542 34.301 27.1797C34.0741 27.3053 33.8948 27.4895 33.7635 27.7323C33.635 27.9724 33.5707 28.2626 33.5707 28.6031ZM41.1293 32.5637C40.73 32.5637 40.3688 32.4884 40.046 32.3376C39.7232 32.1841 39.4675 31.9621 39.2787 31.6719C39.0927 31.3816 38.9997 31.0257 38.9997 30.6043C38.9997 30.2414 39.068 29.9429 39.2048 29.7084C39.3416 29.4739 39.5263 29.2884 39.7589 29.1515C39.9913 29.0147 40.2513 28.9116 40.5384 28.8417C40.8257 28.772 41.1184 28.719 41.4166 28.6827C41.7941 28.6381 42.1006 28.6017 42.3357 28.5738C42.571 28.5432 42.7421 28.4942 42.8488 28.4273C42.9554 28.3603 43.0089 28.2515 43.0089 28.1008V28.0714C43.0089 27.7058 42.9076 27.4226 42.7051 27.2216C42.5055 27.0206 42.2072 26.9201 41.8105 26.9201C41.3974 26.9201 41.0719 27.0136 40.834 27.2006C40.5987 27.3849 40.4359 27.59 40.3456 27.8161L39.1925 27.5481C39.3293 27.1573 39.529 26.8419 39.7916 26.6019C40.057 26.3592 40.3621 26.1832 40.7067 26.0745C41.0513 25.9627 41.4139 25.9069 41.7941 25.9069C42.0458 25.9069 42.3126 25.9377 42.5943 25.999C42.8789 26.0577 43.1442 26.1666 43.3905 26.3256C43.6394 26.4847 43.8432 26.7121 44.0019 27.008C44.1605 27.3011 44.2398 27.6821 44.2398 28.151V32.4213H43.0416V31.5421H42.9924C42.9131 31.7041 42.7941 31.8631 42.6353 32.0194C42.4767 32.1757 42.2729 32.3055 42.0239 32.4088C41.775 32.5121 41.4769 32.5637 41.1293 32.5637ZM41.3961 31.5589C41.7353 31.5589 42.0253 31.4905 42.2661 31.3538C42.5095 31.217 42.6943 31.0384 42.8201 30.8178C42.9486 30.5945 43.0129 30.3559 43.0129 30.1019V29.2729C42.9691 29.3176 42.8843 29.3594 42.7585 29.3986C42.6353 29.4349 42.4945 29.467 42.3357 29.4949C42.1771 29.5199 42.0226 29.5437 41.8721 29.5661C41.7217 29.5857 41.5958 29.6023 41.4946 29.6163C41.2566 29.647 41.0391 29.6987 40.8422 29.7712C40.6479 29.8437 40.4919 29.9485 40.3743 30.0852C40.2594 30.2192 40.202 30.3978 40.202 30.6211C40.202 30.9308 40.3141 31.1653 40.5384 31.3245C40.7627 31.4807 41.0487 31.5589 41.3961 31.5589ZM48.8164 25.9907V26.9955H45.3734V25.9907H48.8164ZM46.2967 24.45H47.5238V30.5332C47.5238 30.7759 47.5593 30.9588 47.6304 31.0816C47.7016 31.2015 47.7931 31.2839 47.9054 31.3286C48.0202 31.3704 48.1447 31.3914 48.2788 31.3914C48.3773 31.3914 48.4634 31.3844 48.5373 31.3704C48.6111 31.3566 48.6686 31.3454 48.7096 31.337L48.9312 32.3711C48.8602 32.3989 48.7589 32.4269 48.6276 32.4548C48.4963 32.4856 48.3321 32.5022 48.1352 32.505C47.8124 32.5106 47.5113 32.452 47.2324 32.3292C46.9533 32.2065 46.7276 32.0166 46.5553 31.7598C46.3829 31.5031 46.2967 31.1806 46.2967 30.7927V24.45ZM55.0661 32.5637C54.6665 32.5637 54.3054 32.4884 53.9827 32.3376C53.6599 32.1841 53.4041 31.9621 53.2153 31.6719C53.0293 31.3816 52.9362 31.0257 52.9362 30.6043C52.9362 30.2414 53.0047 29.9429 53.1415 29.7084C53.2783 29.4739 53.4629 29.2884 53.6954 29.1515C53.928 29.0147 54.1878 28.9116 54.4751 28.8417C54.7623 28.772 55.0551 28.719 55.3532 28.6827C55.7308 28.6381 56.0372 28.6017 56.2725 28.5738C56.5078 28.5432 56.6786 28.4942 56.7854 28.4273C56.8921 28.3603 56.9454 28.2515 56.9454 28.1008V28.0714C56.9454 27.7058 56.8442 27.4226 56.6418 27.2216C56.442 27.0206 56.1439 26.9201 55.7473 26.9201C55.3342 26.9201 55.0086 27.0136 54.7705 27.2006C54.5352 27.3849 54.3724 27.59 54.2822 27.8161L53.1291 27.5481C53.2659 27.1573 53.4656 26.8419 53.7282 26.6019C53.9936 26.3592 54.2986 26.1832 54.6433 26.0745C54.9881 25.9627 55.3505 25.9069 55.7308 25.9069C55.9824 25.9069 56.2492 25.9377 56.531 25.999C56.8154 26.0577 57.0808 26.1666 57.3271 26.3256C57.5759 26.4847 57.7797 26.7121 57.9385 27.008C58.0971 27.3011 58.1765 27.6821 58.1765 28.151V32.4213H56.9782V31.5421H56.929C56.8497 31.7041 56.7306 31.8631 56.572 32.0194C56.4133 32.1757 56.2095 32.3055 55.9606 32.4088C55.7116 32.5121 55.4135 32.5637 55.0661 32.5637ZM55.3327 31.5589C55.672 31.5589 55.9619 31.4905 56.2027 31.3538C56.4462 31.217 56.6308 31.0384 56.7566 30.8178C56.8852 30.5945 56.9495 30.3559 56.9495 30.1019V29.2729C56.9057 29.3176 56.8209 29.3594 56.6951 29.3986C56.572 29.4349 56.4311 29.467 56.2725 29.4949C56.1137 29.5199 55.9592 29.5437 55.8088 29.5661C55.6583 29.5857 55.5325 29.6023 55.4312 29.6163C55.1932 29.647 54.9758 29.6987 54.7788 29.7712C54.5845 29.8437 54.4286 29.9485 54.3109 30.0852C54.1961 30.2192 54.1386 30.3978 54.1386 30.6211C54.1386 30.9308 54.2508 31.1653 54.4751 31.3245C54.6995 31.4807 54.9853 31.5589 55.3327 31.5589ZM59.8108 32.4213V25.9907H60.9967V27.0122H61.0622C61.1772 26.6661 61.3796 26.3939 61.6696 26.1959C61.9623 25.9949 62.2933 25.8944 62.6627 25.8944C62.7392 25.8944 62.8295 25.8972 62.9335 25.9028C63.0403 25.9084 63.1236 25.9153 63.1838 25.9237V27.1211C63.1346 27.1071 63.0471 27.0917 62.9212 27.0751C62.7953 27.0555 62.6695 27.0458 62.5437 27.0458C62.2536 27.0458 61.9952 27.1085 61.7681 27.2341C61.5438 27.3569 61.366 27.5285 61.2347 27.749C61.1033 27.9668 61.0377 28.2151 61.0377 28.4942V32.4213H59.8108ZM66.7365 32.5511C66.1155 32.5511 65.5806 32.4157 65.132 32.145C64.6861 31.8715 64.3414 31.4877 64.0979 30.9936C63.8571 30.4968 63.7368 29.9149 63.7368 29.2479C63.7368 28.5891 63.8571 28.0087 64.0979 27.5063C64.3414 27.0039 64.6806 26.6118 65.1155 26.3298C65.5533 26.0479 66.0648 25.9069 66.6502 25.9069C67.006 25.9069 67.3506 25.967 67.6844 26.087C68.0181 26.2069 68.3177 26.3954 68.583 26.6521C68.8484 26.909 69.0577 27.2425 69.2109 27.6528C69.364 28.0602 69.4407 28.5557 69.4407 29.139V29.5829H64.4303V28.645H68.2384C68.2384 28.3156 68.1727 28.024 68.0414 27.7701C67.9101 27.5132 67.7255 27.3109 67.4874 27.1629C67.2521 27.015 66.9758 26.941 66.6585 26.941C66.3138 26.941 66.0129 27.0276 65.7557 27.2006C65.5013 27.3709 65.3043 27.5941 65.1648 27.8704C65.028 28.1439 64.9596 28.4412 64.9596 28.7622V29.4949C64.9596 29.9247 65.0335 30.2904 65.1812 30.5917C65.3317 30.8933 65.541 31.1234 65.8091 31.2826C66.0772 31.4388 66.3904 31.5171 66.7487 31.5171C66.9813 31.5171 67.1933 31.4835 67.3849 31.4166C67.5763 31.3467 67.7418 31.2435 67.8813 31.1068C68.0209 30.97 68.1276 30.8011 68.2014 30.6001L69.3627 30.8137C69.2697 31.1625 69.1029 31.4681 68.8621 31.7305C68.6241 31.9901 68.3245 32.1925 67.9634 32.3376C67.605 32.48 67.1961 32.5511 66.7365 32.5511ZM74.6358 34.8329C74.4525 34.8329 74.2856 34.8174 74.1352 34.7867C73.9847 34.7589 73.8724 34.7281 73.7986 34.6946L74.0942 33.6689C74.3185 33.7304 74.5181 33.7569 74.6932 33.7485C74.8682 33.7401 75.0228 33.6731 75.1568 33.5475C75.2936 33.4219 75.4141 33.2168 75.518 32.9321L75.6699 32.505L73.3637 25.9907H74.6769L76.2731 30.9811H76.3387L77.9349 25.9907H79.2523L76.6547 33.2796C76.5343 33.6146 76.3812 33.8978 76.1951 34.1295C76.0091 34.3639 75.7875 34.5397 75.5304 34.6569C75.2731 34.7742 74.975 34.8329 74.6358 34.8329ZM82.8459 32.5511C82.255 32.5511 81.7393 32.4129 81.2989 32.1366C80.8585 31.8603 80.5165 31.4737 80.2731 30.977C80.0295 30.4802 79.9078 29.8995 79.9078 29.2354C79.9078 28.5682 80.0295 27.9849 80.2731 27.4854C80.5165 26.9858 80.8585 26.5978 81.2989 26.3214C81.7393 26.0451 82.255 25.9069 82.8459 25.9069C83.4368 25.9069 83.9525 26.0451 84.3929 26.3214C84.8335 26.5978 85.1754 26.9858 85.4189 27.4854C85.6623 27.9849 85.7841 28.5682 85.7841 29.2354C85.7841 29.8995 85.6623 30.4802 85.4189 30.977C85.1754 31.4737 84.8335 31.8603 84.3929 32.1366C83.9525 32.4129 83.4368 32.5511 82.8459 32.5511ZM82.85 31.5003C83.233 31.5003 83.5504 31.397 83.802 31.1905C84.0538 30.9839 84.2398 30.709 84.3601 30.3657C84.4832 30.0225 84.5447 29.6442 84.5447 29.2311C84.5447 28.8208 84.4832 28.444 84.3601 28.1008C84.2398 27.7546 84.0538 27.477 83.802 27.2675C83.5504 27.0583 83.233 26.9537 82.85 26.9537C82.4643 26.9537 82.1442 27.0583 81.8898 27.2675C81.6381 27.477 81.4507 27.7546 81.3277 28.1008C81.2072 28.444 81.1471 28.8208 81.1471 29.2311C81.1471 29.6442 81.2072 30.0225 81.3277 30.3657C81.4507 30.709 81.6381 30.9839 81.8898 31.1905C82.1442 31.397 82.4643 31.5003 82.85 31.5003ZM91.1464 29.7544V25.9907H92.3774V32.4213H91.171V31.3077H91.1052C90.9604 31.651 90.7278 31.9371 90.4077 32.1659C90.0904 32.392 89.695 32.505 89.2218 32.505C88.817 32.505 88.4586 32.4144 88.1466 32.233C87.8375 32.0488 87.5941 31.7766 87.4163 31.4166C87.2412 31.0565 87.1535 30.6113 87.1535 30.081V25.9907H88.3806V29.9303C88.3806 30.3685 88.4996 30.7173 88.7375 30.977C88.9756 31.2365 89.2847 31.3663 89.665 31.3663C89.8948 31.3663 90.1232 31.3077 90.3502 31.1905C90.58 31.0732 90.7701 30.8961 90.9206 30.6588C91.0739 30.4215 91.149 30.12 91.1464 29.7544ZM99.7268 34.9668C99.2262 34.9668 98.7953 34.8998 98.4342 34.7658C98.0758 34.6318 97.7831 34.4546 97.5561 34.2341C97.3291 34.0136 97.1593 33.7722 97.0472 33.5098L98.1018 33.0661C98.1757 33.1888 98.2742 33.3186 98.3972 33.4554C98.5232 33.595 98.6928 33.7136 98.9061 33.8113C99.1222 33.909 99.4 33.9578 99.7391 33.9578C100.204 33.9578 100.589 33.8419 100.892 33.6103C101.196 33.3814 101.348 33.0158 101.348 32.5134V31.249H101.27C101.196 31.3858 101.089 31.538 100.95 31.7054C100.813 31.8728 100.624 32.018 100.383 32.1409C100.143 32.2636 99.8294 32.3251 99.4437 32.3251C98.9458 32.3251 98.4972 32.2065 98.0978 31.9692C97.701 31.7291 97.3864 31.376 97.1539 30.9099C96.9242 30.441 96.8092 29.8648 96.8092 29.1808C96.8092 28.497 96.9227 27.911 97.1498 27.4226C97.3796 26.9341 97.6942 26.56 98.0936 26.3005C98.493 26.0382 98.9458 25.9069 99.452 25.9069C99.8431 25.9069 100.159 25.9739 100.4 26.1079C100.641 26.2391 100.828 26.3926 100.962 26.5684C101.099 26.7442 101.204 26.8991 101.278 27.0332H101.368V25.9907H102.571V32.5637C102.571 33.1163 102.445 33.5699 102.193 33.9243C101.941 34.2787 101.601 34.5411 101.171 34.7114C100.744 34.8816 100.263 34.9668 99.7268 34.9668ZM99.7146 31.2867C100.067 31.2867 100.366 31.203 100.609 31.0356C100.855 30.8653 101.041 30.6225 101.167 30.307C101.296 29.9889 101.36 29.6079 101.36 29.1642C101.36 28.7315 101.297 28.3506 101.171 28.0212C101.045 27.6918 100.861 27.4351 100.617 27.2509C100.374 27.0639 100.073 26.9703 99.7146 26.9703C99.3452 26.9703 99.0374 27.068 98.7913 27.2634C98.545 27.456 98.359 27.7183 98.2331 28.0505C98.1101 28.3827 98.0485 28.7539 98.0485 29.1642C98.0485 29.5857 98.1114 29.9554 98.2372 30.2736C98.3631 30.5917 98.5492 30.8402 98.7953 31.0188C99.0443 31.1974 99.3507 31.2867 99.7146 31.2867ZM106.871 32.5511C106.28 32.5511 105.764 32.4129 105.324 32.1366C104.884 31.8603 104.542 31.4737 104.298 30.977C104.055 30.4802 103.933 29.8995 103.933 29.2354C103.933 28.5682 104.055 27.9849 104.298 27.4854C104.542 26.9858 104.884 26.5978 105.324 26.3214C105.764 26.0451 106.28 25.9069 106.871 25.9069C107.462 25.9069 107.978 26.0451 108.418 26.3214C108.859 26.5978 109.201 26.9858 109.444 27.4854C109.687 27.9849 109.809 28.5682 109.809 29.2354C109.809 29.8995 109.687 30.4802 109.444 30.977C109.201 31.4737 108.859 31.8603 108.418 32.1366C107.978 32.4129 107.462 32.5511 106.871 32.5511ZM106.875 31.5003C107.258 31.5003 107.576 31.397 107.827 31.1905C108.079 30.9839 108.265 30.709 108.385 30.3657C108.508 30.0225 108.57 29.6442 108.57 29.2311C108.57 28.8208 108.508 28.444 108.385 28.1008C108.265 27.7546 108.079 27.477 107.827 27.2675C107.576 27.0583 107.258 26.9537 106.875 26.9537C106.489 26.9537 106.169 27.0583 105.915 27.2675C105.663 27.477 105.476 27.7546 105.353 28.1008C105.232 28.444 105.172 28.8208 105.172 29.2311C105.172 29.6442 105.232 30.0225 105.353 30.3657C105.476 30.709 105.663 30.9839 105.915 31.1905C106.169 31.397 106.489 31.5003 106.875 31.5003ZM111.179 32.4213V25.9907H112.406V32.4213H111.179ZM111.798 24.9985C111.585 24.9985 111.402 24.9259 111.249 24.7807C111.098 24.6329 111.023 24.4569 111.023 24.2533C111.023 24.0467 111.098 23.8709 111.249 23.7257C111.402 23.5779 111.585 23.5039 111.798 23.5039C112.012 23.5039 112.194 23.5779 112.344 23.7257C112.497 23.8709 112.574 24.0467 112.574 24.2533C112.574 24.4569 112.497 24.6329 112.344 24.7807C112.194 24.9259 112.012 24.9985 111.798 24.9985ZM115.283 28.6031V32.4213H114.056V25.9907H115.234V27.0374H115.312C115.457 26.6968 115.684 26.4233 115.993 26.2168C116.305 26.0102 116.698 25.9069 117.171 25.9069C117.6 25.9069 117.977 25.999 118.299 26.1832C118.622 26.3648 118.873 26.6355 119.05 26.9955C119.228 27.3555 119.317 27.8007 119.317 28.331V32.4213H118.09V28.4817C118.09 28.0156 117.971 27.6514 117.733 27.389C117.495 27.1239 117.168 26.9912 116.752 26.9912C116.468 26.9912 116.215 27.0542 115.993 27.1797C115.774 27.3053 115.601 27.4895 115.472 27.7323C115.346 27.9724 115.283 28.2626 115.283 28.6031ZM123.605 34.9668C123.105 34.9668 122.674 34.8998 122.313 34.7658C121.954 34.6318 121.662 34.4546 121.435 34.2341C121.207 34.0136 121.038 33.7722 120.926 33.5098L121.98 33.0661C122.054 33.1888 122.153 33.3186 122.276 33.4554C122.402 33.595 122.571 33.7136 122.785 33.8113C123.001 33.909 123.278 33.9578 123.618 33.9578C124.083 33.9578 124.467 33.8419 124.771 33.6103C125.074 33.3814 125.226 33.0158 125.226 32.5134V31.249H125.148C125.074 31.3858 124.968 31.538 124.828 31.7054C124.691 31.8728 124.503 32.018 124.262 32.1409C124.021 32.2636 123.708 32.3251 123.322 32.3251C122.824 32.3251 122.376 32.2065 121.976 31.9692C121.58 31.7291 121.265 31.376 121.032 30.9099C120.803 30.441 120.688 29.8648 120.688 29.1808C120.688 28.497 120.801 27.911 121.028 27.4226C121.258 26.9341 121.573 26.56 121.972 26.3005C122.372 26.0382 122.824 25.9069 123.33 25.9069C123.722 25.9069 124.038 25.9739 124.278 26.1079C124.519 26.2391 124.706 26.3926 124.841 26.5684C124.977 26.7442 125.083 26.8991 125.156 27.0332H125.247V25.9907H126.449V32.5637C126.449 33.1163 126.323 33.5699 126.071 33.9243C125.82 34.2787 125.479 34.5411 125.05 34.7114C124.623 34.8816 124.142 34.9668 123.605 34.9668ZM123.593 31.2867C123.946 31.2867 124.244 31.203 124.487 31.0356C124.734 30.8653 124.92 30.6225 125.046 30.307C125.174 29.9889 125.238 29.6079 125.238 29.1642C125.238 28.7315 125.176 28.3506 125.05 28.0212C124.924 27.6918 124.739 27.4351 124.496 27.2509C124.252 27.0639 123.951 26.9703 123.593 26.9703C123.224 26.9703 122.916 27.068 122.67 27.2634C122.424 27.456 122.237 27.7183 122.112 28.0505C121.988 28.3827 121.927 28.7539 121.927 29.1642C121.927 29.5857 121.99 29.9554 122.116 30.2736C122.242 30.5917 122.428 30.8402 122.674 31.0188C122.923 31.1974 123.229 31.2867 123.593 31.2867ZM134.095 25.9907V26.9955H130.652V25.9907H134.095ZM131.575 24.45H132.802V30.5332C132.802 30.7759 132.838 30.9588 132.909 31.0816C132.98 31.2015 133.072 31.2839 133.184 31.3286C133.299 31.3704 133.423 31.3914 133.557 31.3914C133.656 31.3914 133.742 31.3844 133.816 31.3704C133.89 31.3566 133.947 31.3454 133.988 31.337L134.21 32.3711C134.139 32.3989 134.037 32.4269 133.906 32.4548C133.775 32.4856 133.611 32.5022 133.414 32.505C133.091 32.5106 132.79 32.452 132.511 32.3292C132.232 32.2065 132.006 32.0166 131.834 31.7598C131.662 31.5031 131.575 31.1806 131.575 30.7927V24.45ZM136.815 28.6031V32.4213H135.588V23.8471H136.798V27.0374H136.876C137.024 26.6912 137.25 26.4163 137.553 26.2125C137.857 26.0089 138.253 25.9069 138.743 25.9069C139.175 25.9069 139.553 25.9977 139.876 26.1791C140.201 26.3605 140.453 26.6312 140.631 26.9912C140.811 27.3486 140.902 27.7951 140.902 28.331V32.4213H139.675V28.4817C139.675 28.01 139.556 27.6444 139.318 27.3849C139.08 27.1225 138.749 26.9912 138.325 26.9912C138.035 26.9912 137.775 27.0542 137.545 27.1797C137.318 27.3053 137.139 27.4895 137.008 27.7323C136.879 27.9724 136.815 28.2626 136.815 28.6031ZM142.539 32.4213V25.9907H143.725V27.0122H143.791C143.905 26.6661 144.108 26.3939 144.398 26.1959C144.691 25.9949 145.021 25.8944 145.391 25.8944C145.468 25.8944 145.557 25.8972 145.661 25.9028C145.768 25.9084 145.852 25.9153 145.913 25.9237V27.1211C145.864 27.1071 145.775 27.0917 145.65 27.0751C145.524 27.0555 145.398 27.0458 145.271 27.0458C144.982 27.0458 144.724 27.1085 144.497 27.2341C144.272 27.3569 144.094 27.5285 143.963 27.749C143.832 27.9668 143.766 28.2151 143.766 28.4942V32.4213H142.539ZM150.967 29.7544V25.9907H152.197V32.4213H150.991V31.3077H150.926C150.78 31.651 150.548 31.9371 150.229 32.1659C149.911 32.392 149.515 32.505 149.043 32.505C148.637 32.505 148.279 32.4144 147.967 32.233C147.658 32.0488 147.415 31.7766 147.237 31.4166C147.061 31.0565 146.974 30.6113 146.974 30.081V25.9907H148.201V29.9303C148.201 30.3685 148.321 30.7173 148.557 30.977C148.796 31.2365 149.105 31.3663 149.485 31.3663C149.714 31.3663 149.944 31.3077 150.171 31.1905C150.401 31.0732 150.59 30.8961 150.741 30.6588C150.895 30.4215 150.97 30.12 150.967 29.7544ZM156.905 32.4213V25.9907H158.091V27.0122H158.156C158.271 26.6661 158.474 26.3939 158.764 26.1959C159.056 25.9949 159.386 25.8944 159.756 25.8944C159.833 25.8944 159.924 25.8972 160.028 25.9028C160.135 25.9084 160.217 25.9153 160.278 25.9237V27.1211C160.229 27.1071 160.14 27.0917 160.015 27.0751C159.889 27.0555 159.763 27.0458 159.638 27.0458C159.347 27.0458 159.089 27.1085 158.862 27.2341C158.638 27.3569 158.459 27.5285 158.329 27.749C158.198 27.9668 158.131 28.2151 158.131 28.4942V32.4213H156.905ZM161.339 32.4213V25.9907H162.566V32.4213H161.339ZM161.959 24.9985C161.745 24.9985 161.562 24.9259 161.409 24.7807C161.258 24.6329 161.183 24.4569 161.183 24.2533C161.183 24.0467 161.258 23.8709 161.409 23.7257C161.562 23.5779 161.745 23.5039 161.959 23.5039C162.173 23.5039 162.355 23.5779 162.505 23.7257C162.658 23.8709 162.735 24.0467 162.735 24.2533C162.735 24.4569 162.658 24.6329 162.505 24.7807C162.355 24.9259 162.173 24.9985 161.959 24.9985ZM166.86 34.9668C166.359 34.9668 165.928 34.8998 165.567 34.7658C165.209 34.6318 164.916 34.4546 164.689 34.2341C164.462 34.0136 164.292 33.7722 164.181 33.5098L165.235 33.0661C165.309 33.1888 165.407 33.3186 165.53 33.4554C165.655 33.595 165.826 33.7136 166.04 33.8113C166.255 33.909 166.532 33.9578 166.872 33.9578C167.337 33.9578 167.721 33.8419 168.026 33.6103C168.329 33.3814 168.481 33.0158 168.481 32.5134V31.249H168.403C168.329 31.3858 168.222 31.538 168.082 31.7054C167.946 31.8728 167.757 32.018 167.516 32.1409C167.276 32.2636 166.963 32.3251 166.577 32.3251C166.079 32.3251 165.629 32.2065 165.231 31.9692C164.833 31.7291 164.519 31.376 164.287 30.9099C164.056 30.441 163.942 29.8648 163.942 29.1808C163.942 28.497 164.055 27.911 164.283 27.4226C164.513 26.9341 164.828 26.56 165.226 26.3005C165.626 26.0382 166.079 25.9069 166.584 25.9069C166.976 25.9069 167.292 25.9739 167.533 26.1079C167.773 26.2391 167.961 26.3926 168.095 26.5684C168.232 26.7442 168.336 26.8991 168.411 27.0332H168.501V25.9907H169.704V32.5637C169.704 33.1163 169.577 33.5699 169.326 33.9243C169.074 34.2787 168.733 34.5411 168.304 34.7114C167.877 34.8816 167.396 34.9668 166.86 34.9668ZM166.847 31.2867C167.201 31.2867 167.498 31.203 167.743 31.0356C167.988 30.8653 168.174 30.6225 168.3 30.307C168.429 29.9889 168.492 29.6079 168.492 29.1642C168.492 28.7315 168.43 28.3506 168.304 28.0212C168.179 27.6918 167.994 27.4351 167.75 27.2509C167.507 27.0639 167.205 26.9703 166.847 26.9703C166.479 26.9703 166.17 27.068 165.924 27.2634C165.678 27.456 165.492 27.7183 165.366 28.0505C165.242 28.3827 165.182 28.7539 165.182 29.1642C165.182 29.5857 165.244 29.9554 165.371 30.2736C165.496 30.5917 165.681 30.8402 165.928 31.0188C166.177 31.1974 166.483 31.2867 166.847 31.2867ZM172.576 28.6031V32.4213H171.349V23.8471H172.56V27.0374H172.638C172.785 26.6912 173.01 26.4163 173.315 26.2125C173.619 26.0089 174.014 25.9069 174.504 25.9069C174.937 25.9069 175.314 25.9977 175.636 26.1791C175.963 26.3605 176.214 26.6312 176.392 26.9912C176.572 27.3486 176.663 27.7951 176.663 28.331V32.4213H175.436V28.4817C175.436 28.01 175.317 27.6444 175.079 27.3849C174.841 27.1225 174.51 26.9912 174.087 26.9912C173.796 26.9912 173.536 27.0542 173.307 27.1797C173.08 27.3053 172.901 27.4895 172.769 27.7323C172.641 27.9724 172.576 28.2626 172.576 28.6031ZM181.242 25.9907V26.9955H177.8V25.9907H181.242ZM178.723 24.45H179.95V30.5332C179.95 30.7759 179.986 30.9588 180.056 31.0816C180.127 31.2015 180.22 31.2839 180.331 31.3286C180.446 31.3704 180.571 31.3914 180.705 31.3914C180.803 31.3914 180.89 31.3844 180.964 31.3704C181.037 31.3566 181.095 31.3454 181.135 31.337L181.358 32.3711C181.286 32.3989 181.185 32.4269 181.053 32.4548C180.923 32.4856 180.758 32.5022 180.562 32.505C180.238 32.5106 179.938 32.452 179.659 32.3292C179.379 32.2065 179.154 32.0166 178.982 31.7598C178.808 31.5031 178.723 31.1806 178.723 30.7927V24.45ZM186.884 28.6031V32.4213H185.658V25.9907H186.835V27.0374H186.913C187.059 26.6968 187.286 26.4233 187.595 26.2168C187.907 26.0102 188.3 25.9069 188.772 25.9069C189.203 25.9069 189.578 25.999 189.9 26.1832C190.224 26.3648 190.474 26.6355 190.651 26.9955C190.829 27.3555 190.919 27.8007 190.919 28.331V32.4213H189.692V28.4817C189.692 28.0156 189.572 27.6514 189.334 27.389C189.097 27.1239 188.769 26.9912 188.353 26.9912C188.069 26.9912 187.816 27.0542 187.595 27.1797C187.375 27.3053 187.202 27.4895 187.074 27.7323C186.948 27.9724 186.884 28.2626 186.884 28.6031ZM195.219 32.5511C194.628 32.5511 194.112 32.4129 193.672 32.1366C193.231 31.8603 192.89 31.4737 192.646 30.977C192.402 30.4802 192.281 29.8995 192.281 29.2354C192.281 28.5682 192.402 27.9849 192.646 27.4854C192.89 26.9858 193.231 26.5978 193.672 26.3214C194.112 26.0451 194.628 25.9069 195.219 25.9069C195.81 25.9069 196.325 26.0451 196.766 26.3214C197.206 26.5978 197.549 26.9858 197.793 27.4854C198.035 27.9849 198.157 28.5682 198.157 29.2354C198.157 29.8995 198.035 30.4802 197.793 30.977C197.549 31.4737 197.206 31.8603 196.766 32.1366C196.325 32.4129 195.81 32.5511 195.219 32.5511ZM195.223 31.5003C195.606 31.5003 195.924 31.397 196.175 31.1905C196.426 30.9839 196.613 30.709 196.734 30.3657C196.857 30.0225 196.917 29.6442 196.917 29.2311C196.917 28.8208 196.857 28.444 196.734 28.1008C196.613 27.7546 196.426 27.477 196.175 27.2675C195.924 27.0583 195.606 26.9537 195.223 26.9537C194.837 26.9537 194.517 27.0583 194.263 27.2675C194.011 27.477 193.823 27.7546 193.701 28.1008C193.581 28.444 193.52 28.8208 193.52 29.2311C193.52 29.6442 193.581 30.0225 193.701 30.3657C193.823 30.709 194.011 30.9839 194.263 31.1905C194.517 31.397 194.837 31.5003 195.223 31.5003ZM200.702 32.4213L198.847 25.9907H200.114L201.35 30.7132H201.411L202.65 25.9907H203.919L205.149 30.6922H205.211L206.438 25.9907H207.706L205.856 32.4213H204.603L203.324 27.7783H203.23L201.948 32.4213H200.702ZM210.212 29.9554V29.8758C210.218 29.3568 210.268 28.9437 210.364 28.6366C210.463 28.3296 210.602 28.0812 210.783 27.8914C210.963 27.7015 211.181 27.5285 211.436 27.3723C211.599 27.2662 211.748 27.1476 211.879 27.0164C212.01 26.8853 212.114 26.7345 212.191 26.5643C212.268 26.3939 212.305 26.2056 212.305 25.999C212.305 25.7507 212.247 25.5358 212.133 25.3543C212.018 25.1729 211.865 25.0333 211.674 24.9357C211.485 24.8352 211.274 24.785 211.041 24.785C210.83 24.785 210.63 24.8296 210.439 24.9189C210.247 25.0082 210.088 25.1478 209.962 25.3376C209.837 25.5246 209.764 25.766 209.744 26.0619H208.498C208.516 25.5595 208.641 25.1353 208.87 24.7891C209.1 24.4403 209.405 24.1765 209.782 23.9979C210.162 23.8193 210.582 23.73 211.041 23.73C211.545 23.73 211.986 23.8262 212.363 24.0188C212.74 24.2086 213.033 24.4752 213.241 24.8184C213.452 25.159 213.557 25.5567 213.557 26.0117C213.557 26.3242 213.508 26.6062 213.413 26.8573C213.318 27.1057 213.18 27.3277 213.003 27.5229C212.828 27.7183 212.617 27.8914 212.372 28.0421C212.139 28.1901 211.95 28.3436 211.805 28.5026C211.662 28.6618 211.558 28.8501 211.493 29.0678C211.427 29.2856 211.392 29.5549 211.386 29.8758V29.9554H210.212ZM210.832 32.5009C210.608 32.5009 210.414 32.42 210.254 32.258C210.092 32.0934 210.011 31.8952 210.011 31.6635C210.011 31.4347 210.092 31.2393 210.254 31.0775C210.414 30.9127 210.608 30.8305 210.832 30.8305C211.054 30.8305 211.245 30.9127 211.407 31.0775C211.571 31.2393 211.652 31.4347 211.652 31.6635C211.652 31.8171 211.615 31.958 211.538 32.0863C211.464 32.2121 211.366 32.3124 211.242 32.3879C211.119 32.4632 210.982 32.5009 210.832 32.5009Z" fill="white"/>
</svg>
