<svg width="190" height="21" viewBox="0 0 190 21" fill="none" xmlns="http://www.w3.org/2000/svg">
<path d="M0.609375 16.2122V0.624132H10.38V2.64875H2.9607V7.39826H9.87019V9.41527H2.9607V14.1877H10.4714V16.2122H0.609375ZM15.1341 4.52116L17.7138 9.07276L20.3163 4.52116H22.8046L19.1596 10.3667L22.8351 16.2122H20.3468L17.7138 11.8433L15.0885 16.2122H12.5925L16.2299 10.3667L12.6383 4.52116H15.1341ZM25.1408 20.5963V4.52116H27.3628V6.41639H27.553C27.6848 6.17282 27.8751 5.8912 28.1237 5.57153C28.3722 5.25185 28.7172 4.97277 29.1587 4.73427C29.5999 4.49071 30.1834 4.36892 30.9088 4.36892C31.8524 4.36892 32.6945 4.60742 33.4352 5.08439C34.1759 5.56138 34.7567 6.24894 35.1778 7.14709C35.6039 8.04522 35.817 9.12604 35.817 10.3895C35.817 11.653 35.6065 12.7363 35.1854 13.6396C34.7644 14.5376 34.186 15.2304 33.4505 15.7174C32.7149 16.1995 31.8752 16.4405 30.9317 16.4405C30.2214 16.4405 29.6405 16.3214 29.1891 16.0829C28.7426 15.8443 28.3926 15.5652 28.139 15.2456C27.8853 14.9259 27.69 14.6418 27.553 14.3931H27.4161V20.5963H25.1408ZM27.3704 10.3667C27.3704 11.1886 27.4895 11.9093 27.728 12.5284C27.9665 13.1474 28.3115 13.6319 28.763 13.9821C29.2144 14.3271 29.7674 14.4997 30.4219 14.4997C31.1016 14.4997 31.6698 14.3195 32.1264 13.9592C32.5829 13.594 32.9279 13.0991 33.1612 12.475C33.3997 11.8509 33.5189 11.1481 33.5189 10.3667C33.5189 9.59541 33.4023 8.90278 33.1689 8.28878C32.9407 7.6748 32.5956 7.19022 32.134 6.83501C31.6774 6.47981 31.1067 6.30222 30.4219 6.30222C29.7623 6.30222 29.2043 6.4722 28.7477 6.81219C28.2962 7.15216 27.9538 7.6266 27.7203 8.2355C27.4871 8.84442 27.3704 9.5548 27.3704 10.3667ZM40.6415 0.624132V16.2122H38.3662V0.624132H40.6415ZM48.6257 16.4482C47.53 16.4482 46.5738 16.1971 45.7571 15.6946C44.9402 15.1923 44.3061 14.4896 43.8547 13.5863C43.4031 12.683 43.1774 11.6276 43.1774 10.4199C43.1774 9.20723 43.4031 8.14671 43.8547 7.23841C44.3061 6.33013 44.9402 5.62481 45.7571 5.12245C46.5738 4.62011 47.53 4.36892 48.6257 4.36892C49.7217 4.36892 50.6778 4.62011 51.4946 5.12245C52.3115 5.62481 52.9456 6.33013 53.397 7.23841C53.8485 8.14671 54.0743 9.20723 54.0743 10.4199C54.0743 11.6276 53.8485 12.683 53.397 13.5863C52.9456 14.4896 52.3115 15.1923 51.4946 15.6946C50.6778 16.1971 49.7217 16.4482 48.6257 16.4482ZM48.6334 14.5376C49.3436 14.5376 49.9321 14.35 50.3988 13.9746C50.8656 13.599 51.2105 13.0991 51.4338 12.475C51.662 11.8509 51.7762 11.1634 51.7762 10.4123C51.7762 9.66644 51.662 8.98142 51.4338 8.35729C51.2105 7.72808 50.8656 7.22319 50.3988 6.84262C49.9321 6.46205 49.3436 6.27177 48.6334 6.27177C47.9181 6.27177 47.3246 6.46205 46.8528 6.84262C46.386 7.22319 46.0386 7.72808 45.8103 8.35729C45.587 8.98142 45.4754 9.66644 45.4754 10.4123C45.4754 11.1634 45.587 11.8509 45.8103 12.475C46.0386 13.0991 46.386 13.599 46.8528 13.9746C47.3246 14.35 47.9181 14.5376 48.6334 14.5376ZM56.614 16.2122V4.52116H58.8132V6.37833H58.9349C59.1479 5.74913 59.5234 5.25439 60.0611 4.89411C60.6039 4.52877 61.2178 4.3461 61.9026 4.3461C62.0446 4.3461 62.2121 4.35116 62.4049 4.36131C62.6027 4.37146 62.7574 4.38416 62.869 4.39937V6.57623C62.7778 6.55085 62.6154 6.52294 62.382 6.49251C62.1487 6.45699 61.9153 6.43923 61.682 6.43923C61.1442 6.43923 60.6648 6.55339 60.2437 6.78174C59.8277 7.005 59.498 7.31707 59.2545 7.71793C59.011 8.11373 58.8893 8.56534 58.8893 9.07276V16.2122H56.614ZM69.4571 16.4482C68.3054 16.4482 67.3136 16.2021 66.4817 15.7099C65.6547 15.2127 65.0155 14.5148 64.564 13.6168C64.1177 12.7135 63.8944 11.6556 63.8944 10.4428C63.8944 9.24529 64.1177 8.18983 64.564 7.27647C65.0155 6.36311 65.6446 5.65018 66.4513 5.13767C67.2629 4.62518 68.2116 4.36892 69.2973 4.36892C69.9567 4.36892 70.596 4.47802 71.2148 4.69621C71.8338 4.91441 72.3893 5.25692 72.8814 5.72376C73.3735 6.19058 73.7615 6.79696 74.0455 7.54288C74.3298 8.28371 74.4718 9.18438 74.4718 10.245V11.0518H65.1804V9.34676H72.2422C72.2422 8.74801 72.1203 8.21774 71.8768 7.75599C71.6335 7.28916 71.2909 6.92127 70.8496 6.65234C70.4132 6.38341 69.901 6.24894 69.3124 6.24894C68.6732 6.24894 68.1152 6.40623 67.6384 6.72085C67.1665 7.03037 66.8013 7.43632 66.5426 7.93866C66.2889 8.43594 66.1621 8.97634 66.1621 9.55989V10.8919C66.1621 11.6734 66.2991 12.3381 66.5729 12.886C66.852 13.4341 67.2401 13.8527 67.7373 14.1419C68.2344 14.426 68.8153 14.5681 69.4799 14.5681C69.9111 14.5681 70.3043 14.5073 70.6594 14.3855C71.0145 14.2587 71.3214 14.0709 71.5802 13.8222C71.8389 13.5736 72.0366 13.2666 72.1736 12.9013L74.3272 13.2894C74.1547 13.9237 73.8452 14.4793 73.3989 14.9564C72.9574 15.4282 72.402 15.7961 71.7323 16.06C71.0677 16.3188 70.3093 16.4482 69.4571 16.4482ZM94.251 11.1583H96.5642L98.1926 13.2818L98.9613 14.2256L101.556 17.6128H99.1516L97.4165 15.3521L96.823 14.5301L94.251 11.1583ZM102.058 8.41818C102.058 10.0825 101.754 11.5135 101.145 12.711C100.536 13.9035 99.702 14.8219 98.6417 15.4663C97.5865 16.1057 96.3867 16.4253 95.0423 16.4253C93.6929 16.4253 92.488 16.1057 91.4278 15.4663C90.3726 14.8219 89.5405 13.9009 88.9318 12.7034C88.3231 11.5059 88.0187 10.0775 88.0187 8.41818C88.0187 6.75383 88.3231 5.32543 88.9318 4.13297C89.5405 2.93546 90.3726 2.01701 91.4278 1.37766C92.488 0.733229 93.6929 0.41102 95.0423 0.41102C96.3867 0.41102 97.5865 0.733229 98.6417 1.37766C99.702 2.01701 100.536 2.93546 101.145 4.13297C101.754 5.32543 102.058 6.75383 102.058 8.41818ZM99.7298 8.41818C99.7298 7.14961 99.5244 6.08149 99.1135 5.21379C98.7077 4.34103 98.1496 3.68136 97.4394 3.23484C96.7343 2.78323 95.9351 2.55743 95.0423 2.55743C94.1445 2.55743 93.3429 2.78323 92.6377 3.23484C91.9326 3.68136 91.3745 4.34103 90.9636 5.21379C90.5578 6.08149 90.3548 7.14961 90.3548 8.41818C90.3548 9.68674 90.5578 10.7574 90.9636 11.6302C91.3745 12.4979 91.9326 13.1575 92.6377 13.6091C93.3429 14.0557 94.1445 14.2789 95.0423 14.2789C95.9351 14.2789 96.7343 14.0557 97.4394 13.6091C98.1496 13.1575 98.7077 12.4979 99.1135 11.6302C99.5244 10.7574 99.7298 9.68674 99.7298 8.41818ZM112.212 11.3638V4.52116H114.494V16.2122H112.257V14.1877H112.135C111.867 14.8117 111.435 15.3319 110.842 15.7479C110.253 16.1589 109.52 16.3644 108.643 16.3644C107.892 16.3644 107.227 16.1995 106.649 15.8697C106.076 15.5348 105.624 15.0401 105.294 14.3855C104.97 13.731 104.807 12.9216 104.807 11.9575V4.52116H107.083V11.6835C107.083 12.4802 107.303 13.1145 107.745 13.5863C108.186 14.0581 108.759 14.2942 109.464 14.2942C109.89 14.2942 110.314 14.1877 110.735 13.9746C111.161 13.7613 111.514 13.4392 111.793 13.0079C112.077 12.5765 112.217 12.0285 112.212 11.3638ZM122.589 16.4482C121.437 16.4482 120.446 16.2021 119.614 15.7099C118.787 15.2127 118.148 14.5148 117.696 13.6168C117.25 12.7135 117.026 11.6556 117.026 10.4428C117.026 9.24529 117.25 8.18983 117.696 7.27647C118.148 6.36311 118.777 5.65018 119.583 5.13767C120.395 4.62518 121.344 4.36892 122.429 4.36892C123.089 4.36892 123.728 4.47802 124.347 4.69621C124.966 4.91441 125.521 5.25692 126.013 5.72376C126.505 6.19058 126.893 6.79696 127.178 7.54288C127.462 8.28371 127.604 9.18438 127.604 10.245V11.0518H118.312V9.34676H125.374C125.374 8.74801 125.252 8.21774 125.009 7.75599C124.765 7.28916 124.423 6.92127 123.982 6.65234C123.545 6.38341 123.033 6.24894 122.444 6.24894C121.805 6.24894 121.247 6.40623 120.77 6.72085C120.299 7.03037 119.933 7.43632 119.674 7.93866C119.421 8.43594 119.294 8.97634 119.294 9.55989V10.8919C119.294 11.6734 119.431 12.3381 119.705 12.886C119.984 13.4341 120.372 13.8527 120.869 14.1419C121.366 14.426 121.947 14.5681 122.612 14.5681C123.043 14.5681 123.436 14.5073 123.791 14.3855C124.146 14.2587 124.453 14.0709 124.712 13.8222C124.971 13.5736 125.169 13.2666 125.306 12.9013L127.459 13.2894C127.287 13.9237 126.977 14.4793 126.531 14.9564C126.089 15.4282 125.534 15.7961 124.864 16.06C124.2 16.3188 123.441 16.4482 122.589 16.4482ZM138.887 7.37542L136.825 7.74077C136.738 7.47691 136.602 7.22573 136.414 6.98724C136.231 6.74874 135.982 6.55339 135.668 6.40117C135.353 6.24894 134.961 6.17282 134.488 6.17282C133.844 6.17282 133.306 6.31744 132.875 6.60667C132.445 6.89083 132.229 7.25871 132.229 7.71032C132.229 8.10104 132.373 8.41564 132.662 8.65413C132.951 8.89263 133.418 9.08798 134.063 9.2402L135.919 9.66644C136.995 9.91509 137.796 10.2982 138.324 10.8157C138.852 11.3333 139.115 12.0057 139.115 12.8328C139.115 13.533 138.912 14.1572 138.506 14.7051C138.105 15.2482 137.545 15.6744 136.825 15.984C136.109 16.2934 135.279 16.4482 134.337 16.4482C133.028 16.4482 131.96 16.1691 131.133 15.6109C130.306 15.0476 129.798 14.2484 129.611 13.2134L131.81 12.8784C131.947 13.4519 132.229 13.8858 132.654 14.18C133.081 14.4692 133.635 14.6139 134.321 14.6139C135.067 14.6139 135.664 14.4591 136.109 14.1495C136.556 13.8349 136.779 13.4519 136.779 13.0002C136.779 12.635 136.642 12.3278 136.368 12.0792C136.1 11.8306 135.685 11.6429 135.128 11.516L133.149 11.0821C132.058 10.8335 131.252 10.4377 130.729 9.89479C130.212 9.35184 129.953 8.66428 129.953 7.83211C129.953 7.14201 130.146 6.53817 130.532 6.0206C130.917 5.50302 131.45 5.09963 132.129 4.81039C132.809 4.51608 133.588 4.36892 134.465 4.36892C135.729 4.36892 136.723 4.64294 137.448 5.19096C138.174 5.73391 138.653 6.46205 138.887 7.37542ZM147.073 4.52116V6.34789H140.689V4.52116H147.073ZM142.401 1.72017H144.676V12.7795C144.676 13.221 144.742 13.5534 144.873 13.7766C145.005 13.9948 145.175 14.1445 145.383 14.2256C145.597 14.3017 145.827 14.3398 146.076 14.3398C146.258 14.3398 146.419 14.3271 146.555 14.3017C146.692 14.2765 146.799 14.2561 146.875 14.2409L147.285 16.1208C147.154 16.1717 146.966 16.2223 146.722 16.2732C146.479 16.3289 146.174 16.3594 145.81 16.3644C145.212 16.3747 144.653 16.2681 144.135 16.0447C143.618 15.8215 143.2 15.4764 142.88 15.0096C142.56 14.5429 142.401 13.9568 142.401 13.2515V1.72017ZM149.589 16.2122V4.52116H151.865V16.2122H149.589ZM150.739 2.71726C150.344 2.71726 150.004 2.58532 149.719 2.32148C149.441 2.05253 149.3 1.73286 149.3 1.36244C149.3 0.986942 149.441 0.667259 149.719 0.403411C150.004 0.134465 150.344 0 150.739 0C151.135 0 151.472 0.134465 151.75 0.403411C152.035 0.667259 152.177 0.986942 152.177 1.36244C152.177 1.73286 152.035 2.05253 151.75 2.32148C151.472 2.58532 151.135 2.71726 150.739 2.71726ZM159.849 16.4482C158.753 16.4482 157.798 16.1971 156.98 15.6946C156.163 15.1923 155.529 14.4896 155.078 13.5863C154.626 12.683 154.401 11.6276 154.401 10.4199C154.401 9.20723 154.626 8.14671 155.078 7.23841C155.529 6.33013 156.163 5.62481 156.98 5.12245C157.798 4.62011 158.753 4.36892 159.849 4.36892C160.945 4.36892 161.901 4.62011 162.719 5.12245C163.534 5.62481 164.17 6.33013 164.621 7.23841C165.073 8.14671 165.298 9.20723 165.298 10.4199C165.298 11.6276 165.073 12.683 164.621 13.5863C164.17 14.4896 163.534 15.1923 162.719 15.6946C161.901 16.1971 160.945 16.4482 159.849 16.4482ZM159.856 14.5376C160.567 14.5376 161.156 14.35 161.623 13.9746C162.09 13.599 162.434 13.0991 162.657 12.475C162.885 11.8509 163 11.1634 163 10.4123C163 9.66644 162.885 8.98142 162.657 8.35729C162.434 7.72808 162.09 7.22319 161.623 6.84262C161.156 6.46205 160.567 6.27177 159.856 6.27177C159.142 6.27177 158.548 6.46205 158.076 6.84262C157.609 7.22319 157.262 7.72808 157.034 8.35729C156.81 8.98142 156.699 9.66644 156.699 10.4123C156.699 11.1634 156.81 11.8509 157.034 12.475C157.262 13.0991 157.609 13.599 158.076 13.9746C158.548 14.35 159.142 14.5376 159.856 14.5376ZM170.113 9.27066V16.2122H167.837V4.52116H170.021V6.42399H170.167C170.434 5.80495 170.855 5.30767 171.429 4.93217C172.008 4.55668 172.735 4.36892 173.614 4.36892C174.409 4.36892 175.107 4.53638 175.706 4.87128C176.304 5.20111 176.768 5.69331 177.099 6.34789C177.428 7.00246 177.593 7.81181 177.593 8.77592V16.2122H175.317V9.04992C175.317 8.20253 175.097 7.54033 174.656 7.06336C174.214 6.5813 173.607 6.34028 172.838 6.34028C172.309 6.34028 171.84 6.45445 171.429 6.68279C171.024 6.91113 170.701 7.24604 170.462 7.68749C170.229 8.12388 170.113 8.65159 170.113 9.27066ZM189.403 7.37542L187.34 7.74077C187.254 7.47691 187.118 7.22573 186.93 6.98724C186.748 6.74874 186.498 6.55339 186.184 6.40117C185.869 6.24894 185.476 6.17282 185.004 6.17282C184.36 6.17282 183.823 6.31744 183.391 6.60667C182.959 6.89083 182.745 7.25871 182.745 7.71032C182.745 8.10104 182.889 8.41564 183.178 8.65413C183.468 8.89263 183.934 9.08798 184.579 9.2402L186.435 9.66644C187.511 9.91509 188.312 10.2982 188.84 10.8157C189.368 11.3333 189.631 12.0057 189.631 12.8328C189.631 13.533 189.428 14.1572 189.022 14.7051C188.621 15.2482 188.061 15.6744 187.34 15.984C186.625 16.2934 185.796 16.4482 184.853 16.4482C183.544 16.4482 182.476 16.1691 181.649 15.6109C180.821 15.0476 180.315 14.2484 180.126 13.2134L182.326 12.8784C182.464 13.4519 182.745 13.8858 183.171 14.18C183.596 14.4692 184.152 14.6139 184.838 14.6139C185.583 14.6139 186.178 14.4591 186.625 14.1495C187.072 13.8349 187.296 13.4519 187.296 13.0002C187.296 12.635 187.158 12.3278 186.884 12.0792C186.616 11.8306 186.201 11.6429 185.644 11.516L183.665 11.0821C182.575 10.8335 181.769 10.4377 181.245 9.89479C180.728 9.35184 180.469 8.66428 180.469 7.83211C180.469 7.14201 180.662 6.53817 181.048 6.0206C181.433 5.50302 181.966 5.09963 182.646 4.81039C183.325 4.51608 184.104 4.36892 184.981 4.36892C186.246 4.36892 187.239 4.64294 187.965 5.19096C188.69 5.73391 189.169 6.46205 189.403 7.37542Z" fill="black"/>
</svg>
