<svg width="314" height="24" viewBox="0 0 314 24" fill="none" xmlns="http://www.w3.org/2000/svg">
<path d="M10.4375 6.13068C10.3466 5.32386 9.97159 4.69886 9.3125 4.25568C8.65341 3.80682 7.82386 3.58239 6.82386 3.58239C6.10795 3.58239 5.48864 3.69602 4.96591 3.92329C4.44318 4.14489 4.03693 4.4517 3.74716 4.84375C3.46307 5.23011 3.32102 5.67045 3.32102 6.16477C3.32102 6.57955 3.41761 6.9375 3.6108 7.23864C3.80966 7.53977 4.06818 7.79261 4.38636 7.99716C4.71023 8.19602 5.05682 8.36364 5.42614 8.5C5.79545 8.63068 6.15057 8.73864 6.49148 8.82386L8.19602 9.26705C8.75284 9.40341 9.32386 9.58807 9.90909 9.82102C10.4943 10.054 11.0369 10.3608 11.5369 10.7415C12.0369 11.1222 12.4403 11.5938 12.7472 12.1562C13.0597 12.7188 13.2159 13.392 13.2159 14.1761C13.2159 15.1648 12.9602 16.0426 12.4489 16.8097C11.9432 17.5767 11.2074 18.1818 10.2415 18.625C9.28125 19.0682 8.11932 19.2898 6.75568 19.2898C5.44886 19.2898 4.31818 19.0824 3.36364 18.6676C2.40909 18.2528 1.66193 17.6648 1.12216 16.9034C0.582386 16.1364 0.284091 15.2273 0.227273 14.1761H2.86932C2.92045 14.8068 3.125 15.3324 3.48295 15.7528C3.84659 16.1676 4.30966 16.4773 4.87216 16.6818C5.44034 16.8807 6.0625 16.9801 6.73864 16.9801C7.48295 16.9801 8.14489 16.8636 8.72443 16.6307C9.30966 16.392 9.76989 16.0625 10.1051 15.642C10.4403 15.2159 10.608 14.7187 10.608 14.1506C10.608 13.6335 10.4602 13.2102 10.1648 12.8807C9.875 12.5511 9.48011 12.2784 8.98011 12.0625C8.4858 11.8466 7.92614 11.6562 7.30114 11.4915L5.23864 10.929C3.84091 10.5483 2.73295 9.98864 1.91477 9.25C1.10227 8.51136 0.696023 7.53409 0.696023 6.31818C0.696023 5.3125 0.96875 4.43466 1.5142 3.68466C2.05966 2.93466 2.7983 2.35227 3.73011 1.9375C4.66193 1.51705 5.71307 1.30682 6.88352 1.30682C8.06534 1.30682 9.10795 1.5142 10.0114 1.92898C10.9205 2.34375 11.6364 2.91477 12.1591 3.64204C12.6818 4.36364 12.9545 5.19318 12.9773 6.13068H10.4375ZM18.7067 11.2273V19H16.1584V1.54545H18.6726V8.03977H18.8345C19.1413 7.33523 19.6101 6.77557 20.2408 6.36079C20.8714 5.94602 21.6953 5.73864 22.7124 5.73864C23.6101 5.73864 24.3942 5.9233 25.0646 6.29261C25.7408 6.66193 26.2635 7.21307 26.6328 7.94602C27.0078 8.6733 27.1953 9.58239 27.1953 10.6733V19H24.647V10.9801C24.647 10.0199 24.3999 9.27557 23.9055 8.74716C23.4112 8.21307 22.7237 7.94602 21.843 7.94602C21.2408 7.94602 20.701 8.07386 20.2237 8.32955C19.7521 8.58523 19.38 8.96023 19.1072 9.45455C18.8402 9.94318 18.7067 10.5341 18.7067 11.2273ZM34.4055 19.2898C33.576 19.2898 32.826 19.1364 32.1555 18.8295C31.4851 18.517 30.9538 18.0653 30.5618 17.4744C30.1754 16.8835 29.9822 16.1591 29.9822 15.3011C29.9822 14.5625 30.1243 13.9545 30.4084 13.4773C30.6925 13 31.076 12.6222 31.5589 12.3438C32.0419 12.0653 32.5817 11.8551 33.1783 11.7131C33.7749 11.571 34.3828 11.4631 35.0021 11.3892C35.7862 11.2983 36.4226 11.2244 36.9112 11.1676C37.3999 11.1051 37.755 11.0057 37.9766 10.8693C38.1982 10.733 38.3089 10.5114 38.3089 10.2045V10.1449C38.3089 9.40057 38.0987 8.82386 37.6783 8.41477C37.2635 8.00568 36.6442 7.80114 35.8203 7.80114C34.9624 7.80114 34.2862 7.99148 33.7919 8.37216C33.3033 8.74716 32.9652 9.16477 32.7777 9.625L30.3828 9.07955C30.6669 8.28409 31.0817 7.64205 31.6271 7.15341C32.1783 6.65909 32.8118 6.30114 33.5277 6.07954C34.2436 5.85227 34.9964 5.73864 35.7862 5.73864C36.3089 5.73864 36.8629 5.80114 37.4482 5.92614C38.0391 6.04545 38.5902 6.26705 39.1016 6.59091C39.6186 6.91477 40.0419 7.37784 40.3714 7.98011C40.701 8.5767 40.8658 9.35227 40.8658 10.3068V19H38.3771V17.2102H38.2749C38.1101 17.5398 37.8629 17.8636 37.5334 18.1818C37.2038 18.5 36.7805 18.7642 36.2635 18.9744C35.7464 19.1847 35.1271 19.2898 34.4055 19.2898ZM34.9595 17.2443C35.6641 17.2443 36.2663 17.1051 36.7663 16.8267C37.272 16.5483 37.6555 16.1847 37.9169 15.7358C38.1839 15.2812 38.3175 14.7955 38.3175 14.2784V12.5909C38.2266 12.6818 38.0504 12.767 37.7891 12.8466C37.5334 12.9205 37.2408 12.9858 36.9112 13.0426C36.5817 13.0937 36.2607 13.142 35.9482 13.1875C35.6357 13.2273 35.3743 13.2614 35.1641 13.2898C34.6697 13.3523 34.218 13.4574 33.8089 13.6051C33.4055 13.7528 33.0817 13.9659 32.8374 14.2443C32.5987 14.517 32.4794 14.8807 32.4794 15.3352C32.4794 15.9659 32.7124 16.4432 33.1783 16.767C33.6442 17.0852 34.2379 17.2443 34.9595 17.2443ZM44.2599 19V5.90909H46.723V7.98864H46.8594C47.098 7.28409 47.5185 6.73011 48.1207 6.3267C48.7287 5.91761 49.4162 5.71307 50.1832 5.71307C50.3423 5.71307 50.5298 5.71875 50.7457 5.73011C50.9673 5.74148 51.1406 5.75568 51.2656 5.77273V8.21023C51.1634 8.18182 50.9815 8.15057 50.7202 8.11648C50.4588 8.0767 50.1974 8.05682 49.9361 8.05682C49.3338 8.05682 48.7969 8.18466 48.3253 8.44034C47.8594 8.69034 47.4901 9.03977 47.2173 9.48864C46.9446 9.93182 46.8082 10.4375 46.8082 11.0057V19H44.2599ZM58.6442 19.2642C57.3544 19.2642 56.2436 18.9886 55.3118 18.4375C54.3857 17.8807 53.6697 17.0994 53.1641 16.0938C52.6641 15.0824 52.4141 13.8977 52.4141 12.5398C52.4141 11.1989 52.6641 10.017 53.1641 8.99432C53.6697 7.97159 54.3743 7.1733 55.2777 6.59943C56.1868 6.02557 57.2493 5.73864 58.4652 5.73864C59.2038 5.73864 59.9197 5.8608 60.6129 6.10511C61.3061 6.34943 61.9283 6.73295 62.4794 7.25568C63.0305 7.77841 63.4652 8.45739 63.7834 9.29261C64.1016 10.1222 64.2607 11.1307 64.2607 12.3182V13.2216H53.8544V11.3125H61.7635C61.7635 10.642 61.6271 10.0483 61.3544 9.53125C61.0817 9.00852 60.6982 8.59659 60.2038 8.29545C59.7152 7.99432 59.1413 7.84375 58.4822 7.84375C57.7663 7.84375 57.1413 8.01989 56.6072 8.37216C56.0788 8.71875 55.6697 9.1733 55.38 9.7358C55.0959 10.2926 54.9538 10.8977 54.9538 11.5511V13.0426C54.9538 13.9176 55.1072 14.6619 55.4141 15.2756C55.7266 15.8892 56.1612 16.358 56.718 16.6818C57.2749 17 57.9254 17.1591 58.6697 17.1591C59.1527 17.1591 59.593 17.0909 59.9908 16.9545C60.3885 16.8125 60.7322 16.6023 61.022 16.3239C61.3118 16.0455 61.5334 15.7017 61.6868 15.2926L64.0987 15.7273C63.9055 16.4375 63.5589 17.0597 63.0589 17.5938C62.5646 18.1222 61.9425 18.5341 61.1925 18.8295C60.4482 19.1193 59.5987 19.2642 58.6442 19.2642ZM70.4034 16.6136L70.2756 17.5426C70.1903 18.2244 70.0455 18.9347 69.8409 19.6733C69.642 20.4176 69.4347 21.108 69.2188 21.7443C69.0085 22.3807 68.8352 22.8864 68.6989 23.2614H66.892C66.9659 22.9091 67.0682 22.4318 67.1989 21.8295C67.3295 21.233 67.4574 20.5653 67.5824 19.8267C67.7074 19.0881 67.8011 18.3352 67.8636 17.5682L67.9489 16.6136H70.4034ZM80.0724 19V5.90909H82.5355V7.98864H82.6719C82.9105 7.28409 83.331 6.73011 83.9332 6.3267C84.5412 5.91761 85.2287 5.71307 85.9957 5.71307C86.1548 5.71307 86.3423 5.71875 86.5582 5.73011C86.7798 5.74148 86.9531 5.75568 87.0781 5.77273V8.21023C86.9759 8.18182 86.794 8.15057 86.5327 8.11648C86.2713 8.0767 86.0099 8.05682 85.7486 8.05682C85.1463 8.05682 84.6094 8.18466 84.1378 8.44034C83.6719 8.69034 83.3026 9.03977 83.0298 9.48864C82.7571 9.93182 82.6207 10.4375 82.6207 11.0057V19H80.0724ZM94.4567 19.2642C93.1669 19.2642 92.0561 18.9886 91.1243 18.4375C90.1982 17.8807 89.4822 17.0994 88.9766 16.0938C88.4766 15.0824 88.2266 13.8977 88.2266 12.5398C88.2266 11.1989 88.4766 10.017 88.9766 8.99432C89.4822 7.97159 90.1868 7.1733 91.0902 6.59943C91.9993 6.02557 93.0618 5.73864 94.2777 5.73864C95.0163 5.73864 95.7322 5.8608 96.4254 6.10511C97.1186 6.34943 97.7408 6.73295 98.2919 7.25568C98.843 7.77841 99.2777 8.45739 99.5959 9.29261C99.9141 10.1222 100.073 11.1307 100.073 12.3182V13.2216H89.6669V11.3125H97.576C97.576 10.642 97.4396 10.0483 97.1669 9.53125C96.8942 9.00852 96.5107 8.59659 96.0163 8.29545C95.5277 7.99432 94.9538 7.84375 94.2947 7.84375C93.5788 7.84375 92.9538 8.01989 92.4197 8.37216C91.8913 8.71875 91.4822 9.1733 91.1925 9.7358C90.9084 10.2926 90.7663 10.8977 90.7663 11.5511V13.0426C90.7663 13.9176 90.9197 14.6619 91.2266 15.2756C91.5391 15.8892 91.9737 16.358 92.5305 16.6818C93.0874 17 93.7379 17.1591 94.4822 17.1591C94.9652 17.1591 95.4055 17.0909 95.8033 16.9545C96.201 16.8125 96.5447 16.6023 96.8345 16.3239C97.1243 16.0455 97.3459 15.7017 97.4993 15.2926L99.9112 15.7273C99.718 16.4375 99.3714 17.0597 98.8714 17.5938C98.3771 18.1222 97.755 18.5341 97.005 18.8295C96.2607 19.1193 95.4112 19.2642 94.4567 19.2642ZM102.901 19V5.90909H105.347V8.03977H105.509C105.781 7.31818 106.227 6.75568 106.847 6.35227C107.466 5.94318 108.207 5.73864 109.071 5.73864C109.946 5.73864 110.679 5.94318 111.27 6.35227C111.866 6.76136 112.307 7.32386 112.591 8.03977H112.727C113.04 7.34091 113.537 6.78409 114.219 6.36932C114.901 5.94886 115.713 5.73864 116.656 5.73864C117.844 5.73864 118.812 6.1108 119.562 6.85511C120.318 7.59943 120.696 8.72159 120.696 10.2216V19H118.148V10.4602C118.148 9.57386 117.906 8.93182 117.423 8.53409C116.94 8.13636 116.364 7.9375 115.693 7.9375C114.864 7.9375 114.219 8.19318 113.759 8.70455C113.298 9.21023 113.068 9.8608 113.068 10.6562V19H110.528V10.2983C110.528 9.58807 110.307 9.01705 109.864 8.58523C109.42 8.15341 108.844 7.9375 108.134 7.9375C107.651 7.9375 107.205 8.06534 106.795 8.32102C106.392 8.57102 106.065 8.92045 105.815 9.36932C105.571 9.81818 105.449 10.3381 105.449 10.929V19H102.901ZM124.112 19V5.90909H126.66V19H124.112ZM125.398 3.8892C124.955 3.8892 124.575 3.74148 124.256 3.44602C123.944 3.14489 123.788 2.78693 123.788 2.37216C123.788 1.9517 123.944 1.59375 124.256 1.29829C124.575 0.997159 124.955 0.846591 125.398 0.846591C125.842 0.846591 126.219 0.997159 126.532 1.29829C126.85 1.59375 127.009 1.9517 127.009 2.37216C127.009 2.78693 126.85 3.14489 126.532 3.44602C126.219 3.74148 125.842 3.8892 125.398 3.8892ZM132.636 11.2273V19H130.088V5.90909H132.534V8.03977H132.696C132.997 7.34659 133.469 6.78977 134.111 6.36932C134.759 5.94886 135.574 5.73864 136.557 5.73864C137.449 5.73864 138.23 5.92614 138.901 6.30114C139.571 6.67045 140.091 7.22159 140.46 7.95455C140.83 8.6875 141.014 9.59375 141.014 10.6733V19H138.466V10.9801C138.466 10.0312 138.219 9.28977 137.724 8.75568C137.23 8.21591 136.551 7.94602 135.688 7.94602C135.097 7.94602 134.571 8.07386 134.111 8.32955C133.656 8.58523 133.295 8.96023 133.028 9.45455C132.767 9.94318 132.636 10.5341 132.636 11.2273ZM149.332 19.2557C148.276 19.2557 147.332 18.9858 146.503 18.446C145.679 17.9006 145.031 17.125 144.56 16.1193C144.094 15.108 143.861 13.8949 143.861 12.4801C143.861 11.0653 144.097 9.85511 144.568 8.84943C145.045 7.84375 145.699 7.07386 146.528 6.53977C147.358 6.00568 148.298 5.73864 149.349 5.73864C150.162 5.73864 150.815 5.875 151.31 6.14773C151.81 6.41477 152.196 6.72727 152.469 7.08523C152.747 7.44318 152.963 7.75852 153.116 8.03125H153.27V1.54545H155.818V19H153.33V16.9631H153.116C152.963 17.2415 152.741 17.5597 152.452 17.9176C152.168 18.2756 151.776 18.5881 151.276 18.8551C150.776 19.1222 150.128 19.2557 149.332 19.2557ZM149.895 17.0824C150.628 17.0824 151.247 16.8892 151.753 16.5028C152.264 16.1108 152.651 15.5682 152.912 14.875C153.179 14.1818 153.312 13.375 153.312 12.4545C153.312 11.5455 153.182 10.75 152.92 10.0682C152.659 9.38636 152.276 8.85511 151.77 8.47443C151.264 8.09375 150.639 7.90341 149.895 7.90341C149.128 7.90341 148.489 8.10227 147.977 8.5C147.466 8.89773 147.08 9.44034 146.818 10.1278C146.563 10.8153 146.435 11.5909 146.435 12.4545C146.435 13.3295 146.565 14.1165 146.827 14.8153C147.088 15.5142 147.474 16.0682 147.986 16.4773C148.503 16.8807 149.139 17.0824 149.895 17.0824ZM165.097 19.2642C163.808 19.2642 162.697 18.9886 161.765 18.4375C160.839 17.8807 160.123 17.0994 159.617 16.0938C159.117 15.0824 158.867 13.8977 158.867 12.5398C158.867 11.1989 159.117 10.017 159.617 8.99432C160.123 7.97159 160.827 7.1733 161.731 6.59943C162.64 6.02557 163.702 5.73864 164.918 5.73864C165.657 5.73864 166.373 5.8608 167.066 6.10511C167.759 6.34943 168.381 6.73295 168.933 7.25568C169.484 7.77841 169.918 8.45739 170.237 9.29261C170.555 10.1222 170.714 11.1307 170.714 12.3182V13.2216H160.308V11.3125H168.217C168.217 10.642 168.08 10.0483 167.808 9.53125C167.535 9.00852 167.151 8.59659 166.657 8.29545C166.168 7.99432 165.594 7.84375 164.935 7.84375C164.219 7.84375 163.594 8.01989 163.06 8.37216C162.532 8.71875 162.123 9.1733 161.833 9.7358C161.549 10.2926 161.407 10.8977 161.407 11.5511V13.0426C161.407 13.9176 161.56 14.6619 161.867 15.2756C162.18 15.8892 162.614 16.358 163.171 16.6818C163.728 17 164.379 17.1591 165.123 17.1591C165.606 17.1591 166.046 17.0909 166.444 16.9545C166.842 16.8125 167.185 16.6023 167.475 16.3239C167.765 16.0455 167.987 15.7017 168.14 15.2926L170.552 15.7273C170.359 16.4375 170.012 17.0597 169.512 17.5938C169.018 18.1222 168.396 18.5341 167.646 18.8295C166.901 19.1193 166.052 19.2642 165.097 19.2642ZM173.541 19V5.90909H176.004V7.98864H176.141C176.379 7.28409 176.8 6.73011 177.402 6.3267C178.01 5.91761 178.697 5.71307 179.464 5.71307C179.624 5.71307 179.811 5.71875 180.027 5.73011C180.249 5.74148 180.422 5.75568 180.547 5.77273V8.21023C180.445 8.18182 180.263 8.15057 180.001 8.11648C179.74 8.0767 179.479 8.05682 179.217 8.05682C178.615 8.05682 178.078 8.18466 177.607 8.44034C177.141 8.69034 176.771 9.03977 176.499 9.48864C176.226 9.93182 176.089 10.4375 176.089 11.0057V19H173.541ZM192.562 9.10511L190.252 9.5142C190.156 9.21875 190.002 8.9375 189.792 8.67045C189.587 8.40341 189.309 8.18466 188.957 8.0142C188.604 7.84375 188.164 7.75852 187.636 7.75852C186.914 7.75852 186.312 7.92045 185.829 8.24432C185.346 8.5625 185.104 8.97443 185.104 9.48011C185.104 9.91761 185.266 10.2699 185.59 10.5369C185.914 10.804 186.437 11.0227 187.158 11.1932L189.238 11.6705C190.442 11.9489 191.34 12.3778 191.931 12.9574C192.522 13.5369 192.817 14.2898 192.817 15.2159C192.817 16 192.59 16.6989 192.136 17.3125C191.687 17.9205 191.059 18.3977 190.252 18.7443C189.451 19.0909 188.522 19.2642 187.465 19.2642C185.999 19.2642 184.803 18.9517 183.877 18.3267C182.951 17.696 182.383 16.8011 182.173 15.642L184.636 15.267C184.789 15.9091 185.104 16.3949 185.582 16.7244C186.059 17.0483 186.681 17.2102 187.448 17.2102C188.283 17.2102 188.951 17.0369 189.451 16.6903C189.951 16.3381 190.201 15.9091 190.201 15.4034C190.201 14.9943 190.048 14.6506 189.741 14.3722C189.44 14.0937 188.977 13.8835 188.352 13.7415L186.136 13.2557C184.914 12.9773 184.011 12.5341 183.425 11.9261C182.846 11.3182 182.556 10.5483 182.556 9.61648C182.556 8.84375 182.772 8.16761 183.204 7.58807C183.636 7.00852 184.232 6.55682 184.994 6.23295C185.755 5.90341 186.627 5.73864 187.61 5.73864C189.025 5.73864 190.138 6.04545 190.951 6.65909C191.763 7.26705 192.3 8.08239 192.562 9.10511ZM205.781 19.2898C204.951 19.2898 204.201 19.1364 203.531 18.8295C202.86 18.517 202.329 18.0653 201.937 17.4744C201.55 16.8835 201.357 16.1591 201.357 15.3011C201.357 14.5625 201.499 13.9545 201.783 13.4773C202.067 13 202.451 12.6222 202.934 12.3438C203.417 12.0653 203.957 11.8551 204.553 11.7131C205.15 11.571 205.758 11.4631 206.377 11.3892C207.161 11.2983 207.798 11.2244 208.286 11.1676C208.775 11.1051 209.13 11.0057 209.352 10.8693C209.573 10.733 209.684 10.5114 209.684 10.2045V10.1449C209.684 9.40057 209.474 8.82386 209.053 8.41477C208.638 8.00568 208.019 7.80114 207.195 7.80114C206.337 7.80114 205.661 7.99148 205.167 8.37216C204.678 8.74716 204.34 9.16477 204.153 9.625L201.758 9.07955C202.042 8.28409 202.457 7.64205 203.002 7.15341C203.553 6.65909 204.187 6.30114 204.903 6.07954C205.619 5.85227 206.371 5.73864 207.161 5.73864C207.684 5.73864 208.238 5.80114 208.823 5.92614C209.414 6.04545 209.965 6.26705 210.477 6.59091C210.994 6.91477 211.417 7.37784 211.746 7.98011C212.076 8.5767 212.241 9.35227 212.241 10.3068V19H209.752V17.2102H209.65C209.485 17.5398 209.238 17.8636 208.908 18.1818C208.579 18.5 208.156 18.7642 207.638 18.9744C207.121 19.1847 206.502 19.2898 205.781 19.2898ZM206.335 17.2443C207.039 17.2443 207.641 17.1051 208.141 16.8267C208.647 16.5483 209.031 16.1847 209.292 15.7358C209.559 15.2812 209.692 14.7955 209.692 14.2784V12.5909C209.602 12.6818 209.425 12.767 209.164 12.8466C208.908 12.9205 208.616 12.9858 208.286 13.0426C207.957 13.0937 207.636 13.142 207.323 13.1875C207.011 13.2273 206.749 13.2614 206.539 13.2898C206.045 13.3523 205.593 13.4574 205.184 13.6051C204.781 13.7528 204.457 13.9659 204.212 14.2443C203.974 14.517 203.854 14.8807 203.854 15.3352C203.854 15.9659 204.087 16.4432 204.553 16.767C205.019 17.0852 205.613 17.2443 206.335 17.2443ZM218.183 11.2273V19H215.635V5.90909H218.081V8.03977H218.243C218.544 7.34659 219.016 6.78977 219.658 6.36932C220.305 5.94886 221.121 5.73864 222.104 5.73864C222.996 5.73864 223.777 5.92614 224.447 6.30114C225.118 6.67045 225.638 7.22159 226.007 7.95455C226.376 8.6875 226.561 9.59375 226.561 10.6733V19H224.013V10.9801C224.013 10.0312 223.766 9.28977 223.271 8.75568C222.777 8.21591 222.098 7.94602 221.234 7.94602C220.643 7.94602 220.118 8.07386 219.658 8.32955C219.203 8.58523 218.842 8.96023 218.575 9.45455C218.314 9.94318 218.183 10.5341 218.183 11.2273ZM234.879 19.2557C233.822 19.2557 232.879 18.9858 232.05 18.446C231.226 17.9006 230.578 17.125 230.107 16.1193C229.641 15.108 229.408 13.8949 229.408 12.4801C229.408 11.0653 229.643 9.85511 230.115 8.84943C230.592 7.84375 231.246 7.07386 232.075 6.53977C232.905 6.00568 233.845 5.73864 234.896 5.73864C235.709 5.73864 236.362 5.875 236.857 6.14773C237.357 6.41477 237.743 6.72727 238.016 7.08523C238.294 7.44318 238.51 7.75852 238.663 8.03125H238.817V1.54545H241.365V19H238.876V16.9631H238.663C238.51 17.2415 238.288 17.5597 237.999 17.9176C237.714 18.2756 237.322 18.5881 236.822 18.8551C236.322 19.1222 235.675 19.2557 234.879 19.2557ZM235.442 17.0824C236.175 17.0824 236.794 16.8892 237.3 16.5028C237.811 16.1108 238.197 15.5682 238.459 14.875C238.726 14.1818 238.859 13.375 238.859 12.4545C238.859 11.5455 238.729 10.75 238.467 10.0682C238.206 9.38636 237.822 8.85511 237.317 8.47443C236.811 8.09375 236.186 7.90341 235.442 7.90341C234.675 7.90341 234.036 8.10227 233.524 8.5C233.013 8.89773 232.626 9.44034 232.365 10.1278C232.109 10.8153 231.982 11.5909 231.982 12.4545C231.982 13.3295 232.112 14.1165 232.374 14.8153C232.635 15.5142 233.021 16.0682 233.533 16.4773C234.05 16.8807 234.686 17.0824 235.442 17.0824ZM251.354 19V5.90909H253.8V8.03977H253.962C254.234 7.31818 254.68 6.75568 255.3 6.35227C255.919 5.94318 256.661 5.73864 257.524 5.73864C258.399 5.73864 259.132 5.94318 259.723 6.35227C260.32 6.76136 260.76 7.32386 261.044 8.03977H261.18C261.493 7.34091 261.99 6.78409 262.672 6.36932C263.354 5.94886 264.166 5.73864 265.109 5.73864C266.297 5.73864 267.266 6.1108 268.016 6.85511C268.771 7.59943 269.149 8.72159 269.149 10.2216V19H266.601V10.4602C266.601 9.57386 266.359 8.93182 265.876 8.53409C265.393 8.13636 264.817 7.9375 264.146 7.9375C263.317 7.9375 262.672 8.19318 262.212 8.70455C261.751 9.21023 261.521 9.8608 261.521 10.6562V19H258.982V10.2983C258.982 9.58807 258.76 9.01705 258.317 8.58523C257.874 8.15341 257.297 7.9375 256.587 7.9375C256.104 7.9375 255.658 8.06534 255.249 8.32102C254.845 8.57102 254.518 8.92045 254.268 9.36932C254.024 9.81818 253.902 10.3381 253.902 10.929V19H251.354ZM278.079 19.2642C276.852 19.2642 275.781 18.983 274.866 18.4205C273.951 17.858 273.241 17.071 272.735 16.0597C272.229 15.0483 271.977 13.8665 271.977 12.5142C271.977 11.1562 272.229 9.96875 272.735 8.9517C273.241 7.93466 273.951 7.14489 274.866 6.58239C275.781 6.01989 276.852 5.73864 278.079 5.73864C279.306 5.73864 280.377 6.01989 281.292 6.58239C282.207 7.14489 282.917 7.93466 283.423 8.9517C283.928 9.96875 284.181 11.1562 284.181 12.5142C284.181 13.8665 283.928 15.0483 283.423 16.0597C282.917 17.071 282.207 17.858 281.292 18.4205C280.377 18.983 279.306 19.2642 278.079 19.2642ZM278.087 17.125C278.883 17.125 279.542 16.9148 280.065 16.4943C280.587 16.0739 280.974 15.5142 281.224 14.8153C281.479 14.1165 281.607 13.3466 281.607 12.5057C281.607 11.6705 281.479 10.9034 281.224 10.2045C280.974 9.5 280.587 8.93466 280.065 8.50852C279.542 8.08239 278.883 7.86932 278.087 7.86932C277.286 7.86932 276.621 8.08239 276.093 8.50852C275.57 8.93466 275.181 9.5 274.925 10.2045C274.675 10.9034 274.55 11.6705 274.55 12.5057C274.55 13.3466 274.675 14.1165 274.925 14.8153C275.181 15.5142 275.57 16.0739 276.093 16.4943C276.621 16.9148 277.286 17.125 278.087 17.125ZM287.026 19V5.90909H289.489V7.98864H289.625C289.864 7.28409 290.284 6.73011 290.886 6.3267C291.494 5.91761 292.182 5.71307 292.949 5.71307C293.108 5.71307 293.295 5.71875 293.511 5.73011C293.733 5.74148 293.906 5.75568 294.031 5.77273V8.21023C293.929 8.18182 293.747 8.15057 293.486 8.11648C293.224 8.0767 292.963 8.05682 292.702 8.05682C292.099 8.05682 291.563 8.18466 291.091 8.44034C290.625 8.69034 290.256 9.03977 289.983 9.48864C289.71 9.93182 289.574 10.4375 289.574 11.0057V19H287.026ZM301.41 19.2642C300.12 19.2642 299.009 18.9886 298.077 18.4375C297.151 17.8807 296.435 17.0994 295.93 16.0938C295.43 15.0824 295.18 13.8977 295.18 12.5398C295.18 11.1989 295.43 10.017 295.93 8.99432C296.435 7.97159 297.14 7.1733 298.043 6.59943C298.952 6.02557 300.015 5.73864 301.231 5.73864C301.969 5.73864 302.685 5.8608 303.379 6.10511C304.072 6.34943 304.694 6.73295 305.245 7.25568C305.796 7.77841 306.231 8.45739 306.549 9.29261C306.867 10.1222 307.026 11.1307 307.026 12.3182V13.2216H296.62V11.3125H304.529C304.529 10.642 304.393 10.0483 304.12 9.53125C303.847 9.00852 303.464 8.59659 302.969 8.29545C302.481 7.99432 301.907 7.84375 301.248 7.84375C300.532 7.84375 299.907 8.01989 299.373 8.37216C298.844 8.71875 298.435 9.1733 298.146 9.7358C297.862 10.2926 297.719 10.8977 297.719 11.5511V13.0426C297.719 13.9176 297.873 14.6619 298.18 15.2756C298.492 15.8892 298.927 16.358 299.484 16.6818C300.04 17 300.691 17.1591 301.435 17.1591C301.918 17.1591 302.359 17.0909 302.756 16.9545C303.154 16.8125 303.498 16.6023 303.788 16.3239C304.077 16.0455 304.299 15.7017 304.452 15.2926L306.864 15.7273C306.671 16.4375 306.325 17.0597 305.825 17.5938C305.33 18.1222 304.708 18.5341 303.958 18.8295C303.214 19.1193 302.364 19.2642 301.41 19.2642ZM313.067 1.54545L312.845 13.9801H310.484L310.263 1.54545H313.067ZM311.669 19.1619C311.197 19.1619 310.794 18.9972 310.459 18.6676C310.124 18.3324 309.959 17.929 309.964 17.4574C309.959 16.9915 310.124 16.5937 310.459 16.2642C310.794 15.929 311.197 15.7614 311.669 15.7614C312.129 15.7614 312.527 15.929 312.862 16.2642C313.197 16.5937 313.368 16.9915 313.374 17.4574C313.368 17.7699 313.286 18.0568 313.126 18.3182C312.973 18.5739 312.768 18.7784 312.513 18.9318C312.257 19.0852 311.976 19.1619 311.669 19.1619Z" fill="black"/>
</svg>
