<svg width="52" height="19" viewBox="0 0 52 19" fill="none" xmlns="http://www.w3.org/2000/svg">
<path d="M3.44318 0.545454L8.30114 14.7614H8.49716L13.3551 0.545454H16.2017L9.92045 18H6.87784L0.596591 0.545454H3.44318ZM22.8473 18.2642C21.5575 18.2642 20.4467 17.9886 19.5149 17.4375C18.5888 16.8807 17.8729 16.0994 17.3672 15.0938C16.8672 14.0824 16.6172 12.8977 16.6172 11.5398C16.6172 10.1989 16.8672 9.01705 17.3672 7.99432C17.8729 6.97159 18.5774 6.1733 19.4808 5.59943C20.3899 5.02557 21.4524 4.73864 22.6683 4.73864C23.407 4.73864 24.1229 4.8608 24.8161 5.10511C25.5092 5.34943 26.1314 5.73295 26.6825 6.25568C27.2337 6.77841 27.6683 7.45739 27.9865 8.29261C28.3047 9.12216 28.4638 10.1307 28.4638 11.3182V12.2216H18.0575V10.3125H25.9666C25.9666 9.64205 25.8303 9.0483 25.5575 8.53125C25.2848 8.00852 24.9013 7.59659 24.407 7.29545C23.9183 6.99432 23.3445 6.84375 22.6854 6.84375C21.9695 6.84375 21.3445 7.01989 20.8104 7.37216C20.282 7.71875 19.8729 8.1733 19.5831 8.7358C19.299 9.29261 19.157 9.89773 19.157 10.5511V12.0426C19.157 12.9176 19.3104 13.6619 19.6172 14.2756C19.9297 14.8892 20.3643 15.358 20.9212 15.6818C21.478 16 22.1286 16.1591 22.8729 16.1591C23.3558 16.1591 23.7962 16.0909 24.1939 15.9545C24.5916 15.8125 24.9354 15.6023 25.2251 15.3239C25.5149 15.0455 25.7365 14.7017 25.8899 14.2926L28.3018 14.7273C28.1087 15.4375 27.7621 16.0597 27.2621 16.5938C26.7678 17.1222 26.1456 17.5341 25.3956 17.8295C24.6513 18.1193 23.8018 18.2642 22.8473 18.2642ZM33.8395 10.2273V18H31.2912V4.90909H33.7372V7.03977H33.8991C34.2003 6.34659 34.6719 5.78977 35.3139 5.36932C35.9616 4.94886 36.777 4.73864 37.7599 4.73864C38.652 4.73864 39.4332 4.92614 40.1037 5.30114C40.7741 5.67045 41.294 6.22159 41.6634 6.95455C42.0327 7.6875 42.2173 8.59375 42.2173 9.6733V18H39.669V9.98011C39.669 9.03125 39.4219 8.28977 38.9276 7.75568C38.4332 7.21591 37.7543 6.94602 36.8906 6.94602C36.2997 6.94602 35.7741 7.07386 35.3139 7.32955C34.8594 7.58523 34.4986 7.96023 34.2315 8.45455C33.9702 8.94318 33.8395 9.53409 33.8395 10.2273ZM51.7457 4.90909V6.95455H44.5952V4.90909H51.7457ZM46.5128 1.77273H49.0611V14.1562C49.0611 14.6506 49.1349 15.0227 49.2827 15.2727C49.4304 15.517 49.6207 15.6847 49.8537 15.7756C50.0923 15.8608 50.3509 15.9034 50.6293 15.9034C50.8338 15.9034 51.0128 15.8892 51.1662 15.8608C51.3196 15.8324 51.4389 15.8097 51.5241 15.7926L51.9844 17.8977C51.8366 17.9545 51.6264 18.0114 51.3537 18.0682C51.081 18.1307 50.7401 18.1648 50.331 18.1705C49.6605 18.1818 49.0355 18.0625 48.456 17.8125C47.8764 17.5625 47.4077 17.1761 47.0497 16.6534C46.6918 16.1307 46.5128 15.4744 46.5128 14.6847V1.77273Z" fill="black"/>
</svg>
